# xmcd
#
# Track frame offsets:
#	150
#	15547
#	29910
#	54662
#	74000
#	92607
#	107822
#	133990
#
# Disc length: 2014 seconds
#
# Revision: 0
# Processed by: cddbd v1.5.1PL0 Copyright (c) Steve Scherf et al.
# Submitted via: dBpowerAMP V4.0
#
DISCID=7607dc08
DTITLE=Blue-Up - Blue-Up
DYEAR=1998
DGENRE=Blues
TTITLE0=Holy Water
TTITLE1=Blow-Up
TTITLE2=Hang-Dog
TTITLE3=Homeland Blues
TTITLE4=Night-Fall
TTITLE5=Blue-Up
TTITLE6=Cast the First Stone
TTITLE7=Blind Alley
EXTD=
EXTT0=
EXTT1=
EXTT2=
EXTT3=
EXTT4=
EXTT5=
EXTT6=
EXTT7=
PLAYORDER=
